<svg xmlns="http://www.w3.org/2000/svg" xmlns:xlink="http://www.w3.org/1999/xlink" width="500" zoomAndPan="magnify" viewBox="0 0 375 374.999991" height="500" preserveAspectRatio="xMidYMid meet" version="1.0"><path fill="#ffffff" d="M 187.5 46.875 C 222.261719 46.875 254.105469 59.507812 278.644531 80.40625 C 293.1875 76.964844 306.535156 75.375 317.8125 76.332031 C 329.679688 77.34375 342.863281 81.601562 349.878906 93.753906 C 356.226562 104.746094 355.375 117.019531 351.058594 128.1875 C 346.820312 139.160156 338.769531 150.488281 327.921875 161.988281 C 327.335938 162.605469 326.746094 163.226562 326.140625 163.851562 C 327.445312 171.546875 328.125 179.449219 328.125 187.5 C 328.125 265.164062 265.164062 328.125 187.5 328.125 C 153.378906 328.125 122.066406 315.953125 97.71875 295.738281 C 96.867188 295.953125 96.027344 296.15625 95.191406 296.355469 C 79.804688 300 65.972656 301.304688 54.351562 299.492188 C 42.515625 297.648438 31.449219 292.21875 25.121094 281.253906 C 18.105469 269.109375 21.003906 255.5625 26.0625 244.78125 C 30.867188 234.539062 38.917969 223.777344 49.167969 212.902344 C 47.660156 204.652344 46.875 196.164062 46.875 187.5 C 46.875 109.835938 109.835938 46.875 187.5 46.875 Z M 52.269531 265.765625 C 50.027344 254.695312 67.898438 238.40625 74.242188 231.90625 C 79.894531 226.109375 82.117188 217.941406 80.492188 210.257812 C 78.941406 202.929688 78.125 195.320312 78.125 187.5 C 78.125 127.09375 127.09375 78.125 187.5 78.125 C 215.644531 78.125 241.273438 88.734375 260.664062 106.199219 C 266.511719 111.464844 274.707031 113.625 282.558594 111.625 C 291.367188 109.378906 314.421875 102.042969 322.890625 109.519531 C 328.132812 120.507812 307.71875 138.140625 301.339844 144.496094 C 301.289062 144.546875 301.238281 144.601562 301.1875 144.652344 C 281.851562 163.875 249.90625 187.558594 203.125 214.566406 C 156.367188 241.5625 119.902344 257.382812 93.589844 264.519531 C 93.515625 264.539062 93.4375 264.5625 93.359375 264.582031 C 85.125 266.804688 58.851562 275.34375 52.269531 265.765625 Z M 134.886719 283.414062 C 158.929688 273.824219 186.921875 260.007812 218.75 241.628906 C 250.570312 223.257812 276.523438 205.929688 296.847656 189.910156 C 295.566406 249.203125 247.101562 296.875 187.5 296.875 C 168.417969 296.875 150.492188 292 134.886719 283.414062 Z M 134.886719 283.414062 " fill-opacity="1" fill-rule="evenodd"/></svg>